<svg xmlns="http://www.w3.org/2000/svg" width="79.999" height="80"><path fill="none" d="M0 79.999v-80h79.999v80z"/><path d="M65.5 63.279V73m0-31.507v13.5m-30 18.089V7.5h30v26.2" fill="none" stroke="#0e5abc" stroke-miterlimit="79.84" stroke-width="2"/><path d="M74.612 71.624c3.045-2.133 1.983-5.563-1.144-9.091L61.6 48.724c-.315-.677-.169-1.975 1.208-3.095l7.78-6.575a1.94 1.94 0 00.453-2.569l-3.175-4.532-27.949 19.572 3.175 4.532a1.942 1.942 0 002.569.452l8.836-5.065c1.527-.912 2.8-.605 3.328-.075l8.915 15.874c2.248 4.145 5.108 6.315 8.151 4.183" fill="#fffcfc" stroke="#0e5abc" stroke-miterlimit="79.84" fill-rule="evenodd"/><path d="M69.054 35.815L44.993 52.666m4.607-7.698l-4.6-6.24m-5.083 12.781L38 48.909m6.929-.724L38 38.775m10.567-13.717l.369-3.319a1.727 1.727 0 011.457-1.459l3.319-.368a.656.656 0 000-1.292l-3.319-.369a1.73 1.73 0 01-1.46-1.457l-.367-3.319a.656.656 0 00-1.292 0l-.369 3.319a1.73 1.73 0 01-1.457 1.46l-3.319.368a.656.656 0 000 1.292l3.319.368a1.727 1.727 0 011.459 1.457l.368 3.319a.656.656 0 001.292 0zM18.838 49.871l.633-5.689a2.964 2.964 0 012.5-2.5l5.687-.629c1.241-.139 1.24-1.363 0-1.5l-5.688-.633a2.964 2.964 0 01-2.5-2.5l-.631-5.687c-.14-1.241-1.361-1.24-1.5 0l-.633 5.688a2.964 2.964 0 01-2.5 2.5l-5.688.631c-1.24.139-1.24 1.361 0 1.5l5.689.633a2.963 2.963 0 012.5 2.5l.628 5.688c.14 1.24 1.364 1.24 1.5 0zM0 74.5h67" fill="none" stroke="#0e5abc" stroke-miterlimit="79.84"/><path d="M1.5 73V7.5h30V73" fill="none" stroke="#0e5abc" stroke-miterlimit="79.84" stroke-width="2"/><path d="M5 10v63m57-14v14m0-63v26" fill="none" stroke="#0e5abc" stroke-miterlimit="79.84"/></svg>