<svg xmlns="http://www.w3.org/2000/svg" width="79.999" height="80" viewBox="0 0 79.999 80">
  <g id="catalog-icon3" transform="translate(-90 763.009)">
    <rect id="rect140" width="80" height="79.999" transform="translate(90 -683.01) rotate(-90)" fill="none"/>
    <path id="path164" d="M158.5-698.009v9.721" transform="translate(-3 -1.721)" fill="none" stroke="#0e5abc" stroke-miterlimit="79.84" stroke-width="2" fill-rule="evenodd"/>
    <path id="path156" d="M158.5-719.621v13.5" transform="translate(-3 -1.895)" fill="none" stroke="#0e5abc" stroke-miterlimit="79.84" stroke-width="2" fill-rule="evenodd"/>
    <path id="path154" d="M128.5-689.927v-65.582H158.5v26.2" transform="translate(-3)" fill="none" stroke="#0e5abc" stroke-miterlimit="79.84" stroke-width="2" fill-rule="evenodd"/>
    <path id="path142" d="M167.612-691.385c3.045-2.133,1.983-5.563-1.144-9.091L154.6-714.285c-.315-.677-.169-1.975,1.208-3.095l7.78-6.575a1.94,1.94,0,0,0,.453-2.569l-3.175-4.532-27.949,19.572,3.175,4.532a1.942,1.942,0,0,0,2.569.452l8.836-5.065c1.527-.912,2.8-.605,3.328-.075l8.915,15.874c2.248,4.145,5.108,6.315,8.151,4.183" transform="translate(-3)" fill="#fffcfc" stroke="#0e5abc" stroke-miterlimit="79.84" stroke-width="1" fill-rule="evenodd"/>
    <path id="path144" d="M162.054-727.194l-24.061,16.851" transform="translate(-3)" fill="none" stroke="#0e5abc" stroke-miterlimit="79.84" stroke-width="1" fill-rule="evenodd"/>
    <path id="path146" d="M142.6-718.041l-4.6-6.24" transform="translate(-3)" fill="none" stroke="#0e5abc" stroke-miterlimit="79.84" stroke-width="1" fill-rule="evenodd"/>
    <path id="path148" d="M132.917-711.5,131-714.1" transform="translate(-3)" fill="none" stroke="#0e5abc" stroke-miterlimit="79.84" stroke-width="1" fill-rule="evenodd"/>
    <path id="path150" d="M137.929-714.824,131-724.234" transform="translate(-3)" fill="none" stroke="#0e5abc" stroke-miterlimit="79.84" stroke-width="1" fill-rule="evenodd"/>
    <path id="path152" d="M141.567-737.951l.369-3.319a1.727,1.727,0,0,1,1.457-1.459l3.319-.368a.656.656,0,0,0,0-1.292l-3.319-.369a1.73,1.73,0,0,1-1.46-1.457l-.367-3.319a.656.656,0,0,0-1.292,0l-.369,3.319a1.73,1.73,0,0,1-1.457,1.46l-3.319.368a.656.656,0,0,0,0,1.292l3.319.368a1.727,1.727,0,0,1,1.459,1.457l.368,3.319A.656.656,0,0,0,141.567-737.951Z" transform="translate(-3)" fill="none" stroke="#0e5abc" stroke-miterlimit="79.84" stroke-width="1" fill-rule="evenodd"/>
    <path id="path158" d="M111.838-713.138l.633-5.689a2.964,2.964,0,0,1,2.5-2.5l5.687-.629c1.241-.139,1.24-1.363,0-1.5l-5.688-.633a2.964,2.964,0,0,1-2.5-2.5l-.631-5.687c-.14-1.241-1.361-1.24-1.5,0l-.633,5.688a2.964,2.964,0,0,1-2.5,2.5l-5.688.631c-1.24.139-1.24,1.361,0,1.5l5.689.633a2.963,2.963,0,0,1,2.5,2.5l.628,5.688c.14,1.24,1.364,1.24,1.5,0Z" transform="translate(-3)" fill="none" stroke="#0e5abc" stroke-miterlimit="79.84" stroke-width="1" fill-rule="evenodd"/>
    <path id="path160" d="M93-688.509h67" transform="translate(-3)" fill="none" stroke="#0e5abc" stroke-miterlimit="79.84" stroke-width="1" fill-rule="evenodd"/>
    <path id="path162" d="M94.5-690.009v-65.5h30v65.5" transform="translate(-3)" fill="none" stroke="#0e5abc" stroke-miterlimit="79.84" stroke-width="2" fill-rule="evenodd"/>
    <path id="path166" d="M98-753.009v63" transform="translate(-3)" fill="none" stroke="#0e5abc" stroke-miterlimit="79.84" stroke-width="1" fill-rule="evenodd"/>
    <path id="path168" d="M155-704.009v14" transform="translate(-3)" fill="none" stroke="#0e5abc" stroke-miterlimit="79.84" stroke-width="1" fill-rule="evenodd"/>
    <path id="path170" d="M155-753.009v26" transform="translate(-3)" fill="none" stroke="#0e5abc" stroke-miterlimit="79.84" stroke-width="1" fill-rule="evenodd"/>
  </g>
</svg>
